<svg width="5" height="10" viewBox="0 0 5 10" fill="none" xmlns="http://www.w3.org/2000/svg">
<path d="M1.00869 1.93668C1.00869 2.18869 1.00869 3.31349 1.00869 3.31349H0V4.99705H1.00869V10H3.08076V4.99719H4.47121C4.47121 4.99719 4.60143 4.18993 4.66455 3.30728C4.48358 3.30728 3.08859 3.30728 3.08859 3.30728C3.08859 3.30728 3.08859 2.32784 3.08859 2.15616C3.08859 1.98411 3.31451 1.75268 3.5378 1.75268C3.76067 1.75268 4.23106 1.75268 4.66674 1.75268C4.66674 1.52346 4.66674 0.731461 4.66674 6.01391e-09C4.08512 6.01391e-09 3.42343 6.01391e-09 3.13177 6.01391e-09C0.957472 -0.000116243 1.00869 1.68512 1.00869 1.93668Z" fill="#253339"/>
</svg>
