<svg width="11" height="10" viewBox="0 0 11 10" fill="none" xmlns="http://www.w3.org/2000/svg">
<path d="M2.37746 3.24933H0.129517V9.99993H2.37746V3.24933Z" fill="#253339"/>
<path d="M9.75479 3.86595C9.28259 3.35049 8.65804 3.09271 7.88154 3.09271C7.59544 3.09271 7.33537 3.12791 7.10145 3.19834C6.86761 3.26872 6.6701 3.36748 6.50883 3.49465C6.34766 3.62182 6.2193 3.73988 6.124 3.84882C6.03338 3.9523 5.94477 4.07284 5.8583 4.20919V3.24928H3.61707L3.62394 3.5763C3.62854 3.79435 3.63081 4.46642 3.63081 5.59261C3.63081 6.7189 3.62628 8.18797 3.61716 9.99998H5.8583V6.23288C5.8583 6.00132 5.88314 5.81744 5.9332 5.68108C6.02864 5.44936 6.17268 5.25536 6.36579 5.09874C6.55889 4.94194 6.79837 4.86361 7.08456 4.86361C7.475 4.86361 7.76234 4.9987 7.94629 5.26891C8.13018 5.53909 8.22213 5.91264 8.22213 6.38949V9.99976H10.4633V6.13081C10.4631 5.13616 10.2271 4.38124 9.75479 3.86595Z" fill="#253339"/>
<path d="M1.26701 0C0.890125 0 0.584748 0.110207 0.350806 0.330406C0.116887 0.550652 0 0.82871 0 1.16484C0 1.49627 0.113523 1.77338 0.340594 1.99584C0.567593 2.21833 0.867363 2.32964 1.23974 2.32964H1.25336C1.63487 2.32964 1.94259 2.21843 2.17644 1.99584C2.41028 1.77338 2.52493 1.49637 2.52042 1.16484C2.51588 0.828734 2.4 0.550652 2.173 0.330406C1.94602 0.110111 1.64392 0 1.26701 0Z" fill="#253339"/>
</svg>
