<svg  data-name="Layer 1" xmlns="http://www.w3.org/2000/svg" viewBox="0 0 156 70.67">
  <defs>
    <style>.cls-1{fill:#fff;}.cls-2{fill:#c0d3d3;}.cls-3{fill:#253339;}</style>
  </defs>
  <path class="cls-1" d="M93.41,17.64,91.3,28a2.21,2.21,0,1,0,4.31,0Z"/>
  <path class="cls-1" d="M93.46,30.71A2.21,2.21,0,0,0,95.62,28l-2.2-10.38L91.31,28A2.21,2.21,0,0,0,93.46,30.71Z"/>
  <path class="cls-2" d="M95.62,28l-2.2-10.36L91.31,28a2.21,2.21,0,1,0,4.31,0Z"/>
  <path class="cls-1" d="M95.62,28l-2.2-10.38h0L95.62,28a2.21,2.21,0,0,1-3.87,1.87A2.21,2.21,0,0,0,95.62,28Z"/>
  <path class="cls-1" d="M91.31,28l2.11-10.38v0L91.3,28a2.2,2.2,0,0,0,.44,1.86A2.2,2.2,0,0,1,91.31,28Z"/>
  <path class="cls-3" d="M110.94,68.52h0a2.36,2.36,0,0,1-2.36-2.36V64.38h4.71v1.78A2.36,2.36,0,0,1,110.94,68.52Z"/>
  <path class="cls-3" d="M30.5,62.9h-.9l-3-8.11h1l2.36,7,0,.29,0-.29,2.36-7h1Z"/>
  <path class="cls-3" d="M44.36,62.9V54.79h.91V62.9Z"/>
  <path class="cls-3" d="M62.86,62.9H62l-4.33-6.63.06.52V62.9h-.91V54.79h.86L62,61.42,62,60.9V54.79h.91Z"/>
  <path class="cls-3" d="M76.56,54.79c2.29,0,3.84,1.48,3.84,4.05s-1.55,4.05-3.84,4.05H74.36V54.79Zm0,7.34c1.82,0,2.9-1.22,2.9-3.29s-1.08-3.29-2.9-3.29H75.28v6.57Z"/>
  <path class="cls-3" d="M97.21,59.81c0,2.09-1,3.24-3,3.24s-3-1.15-3-3.24v-5h.91v5.16c0,1.5.72,2.33,2,2.33s2-.83,2-2.33V54.79h.91Z"/>
  <path class="cls-3" d="M108.59,62.9V54.79h4.68v.77H109.5v2.9h3.41v.73H109.5v2.94h3.8v.77Z"/>
  <path class="cls-3" d="M127.27,59.75h-1.75V62.9h-.91V54.79h2.34c1.79,0,2.84.92,2.84,2.48A2.23,2.23,0,0,1,128,59.65l.24.24,1.85,3H129Zm-.22-.72a1.63,1.63,0,0,0,1.81-1.76,1.59,1.59,0,0,0-1.75-1.71h-1.61V59Z"/>
  <path class="cls-1" d="M93.41,17.64,91.3,28a2.21,2.21,0,1,0,4.31,0Z"/>
  <path class="cls-1" d="M93.46,30.71A2.21,2.21,0,0,0,95.62,28l-2.2-10.38L91.31,28A2.21,2.21,0,0,0,93.46,30.71Z"/>
  <polygon class="cls-1" points="74.36 42.2 73.27 45.91 73.28 45.91 74.37 42.2 74.36 42.2"/>
  <path class="cls-2" d="M95.62,28l-2.2-10.36L91.31,28a2.21,2.21,0,1,0,4.31,0Z"/>
  <path class="cls-1" d="M95.62,28l-2.2-10.38h0L95.62,28a2.21,2.21,0,0,1-3.87,1.87A2.21,2.21,0,0,0,95.62,28Z"/>
  <path class="cls-1" d="M91.31,28l2.11-10.38v0L91.3,28a2.2,2.2,0,0,0,.44,1.86A2.2,2.2,0,0,1,91.31,28Z"/>
  <polygon class="cls-1" points="99.66 45.93 99.67 45.94 108.61 45.94 108.61 45.94 99.66 45.93"/>
  <polygon class="cls-3" points="59 1.73 45.55 1.72 45.51 45.88 71.31 45.9 71.32 34.15 58.97 34.13 59 1.73"/>
  <path class="cls-3" d="M24.19,1.7C15.27,1.7,7.1,6.36,3.88,15.13a24.92,24.92,0,0,0-1.46,8.64A24.92,24.92,0,0,0,3.86,32.4c3.21,8.77,11.37,13.45,20.29,13.46H39.5l0-25.93H23.58v7.71h7.64v6.47H24.16a9.08,9.08,0,0,1-2.65-.37c-3.32-1-5.18-4.17-5.18-10,0-6.36,2.26-9.49,6.23-10.12a10.19,10.19,0,0,1,1.62-.13H39.53V1.72H24.19Z"/>
  <path class="cls-3" d="M112,40.69,100.61,1.78H86.31l-13,44.15H87.19l1.18-5.23ZM91.3,28l2.11-10.39v0h0L95.62,28a2.21,2.21,0,1,1-4.32,0Z"/>
  <path class="cls-3" d="M132.59,34.19h-2l0-20.57h0l0,20.58h2c3.73,0,6.28-1.76,7.32-5.68C138.86,32.43,136.31,34.19,132.59,34.19Z"/>
  <path class="cls-3" d="M132.62,1.8H117.27l0,38.9h30.1c4.26-3.73,7-9.38,7-16.79C154.36,9.59,144.12,1.81,132.62,1.8Zm0,32.4h-2l0-20.58h2c5,0,7.84,3.08,7.83,10.26a18.17,18.17,0,0,1-.53,4.64C138.87,32.44,136.32,34.2,132.59,34.2Z"/>
  <path class="cls-3" d="M132.61,13.61h0c5,0,7.84,3.08,7.83,10.26a18.19,18.19,0,0,1-.53,4.63,18.17,18.17,0,0,0,.53-4.64C140.45,16.69,137.57,13.62,132.61,13.61Z"/>
  <path class="cls-1" d="M132.58,45.95l1,0h-1Z"/>
  <path class="cls-3" d="M133.58,45.93a22.52,22.52,0,0,0,11.79-3.73H89.63l-.84,3.72,19.81,0h0l0,7.36h4.7l0-7.35"/>
  <path class="cls-3" d="M113.27,45.95l0,3.44s0-3.44,4.3-3.44"/>
  <path class="cls-3" d="M108.61,45.93l0,3.44s0-3.44-4.3-3.44"/>
</svg>