<svg width="22" height="22" viewBox="0 0 22 22" fill="none" xmlns="http://www.w3.org/2000/svg">
<path d="M17.8707 14.416C17.2434 13.7715 15.4602 12.5641 14.2914 12.5641C14.0207 12.5641 13.7844 12.6242 13.591 12.7488C13.0195 13.1141 12.5641 13.3977 12.3449 13.3977C12.2246 13.3977 12.0957 13.2902 11.8121 13.0453L11.7649 13.0023C10.9785 12.3191 10.811 12.143 10.5059 11.825L10.4285 11.7434C10.3727 11.6875 10.3254 11.6359 10.2781 11.5887C10.0117 11.3137 9.81837 11.116 9.13517 10.3426L9.10509 10.3082C8.77853 9.93867 8.56368 9.69805 8.55079 9.52187C8.5379 9.35 8.68829 9.0707 9.07072 8.55078C9.53478 7.92344 9.55197 7.15 9.12657 6.25195C8.78712 5.54297 8.23282 4.86406 7.74298 4.2668L7.70001 4.21523C7.27892 3.69961 6.78908 3.4418 6.24337 3.4418C5.63751 3.4418 5.13478 3.76836 4.86837 3.94023C4.84689 3.95312 4.8254 3.97031 4.80392 3.9832C4.20665 4.36133 3.77267 4.88125 3.60939 5.40976C3.36447 6.20469 3.20119 7.23594 4.37423 9.38008C5.38829 11.2363 6.30783 12.4824 7.76876 13.982C9.14376 15.3914 9.75392 15.8469 11.1203 16.8352C12.6414 17.9352 14.1024 18.5668 15.125 18.5668C16.0746 18.5668 16.8223 18.5668 17.8879 17.282C19.0051 15.9328 18.541 15.1078 17.8707 14.416Z" fill="#253339"/>
</svg>
